PathFileType   4   (X/Y/Z)																																																																																																																							
DataRate	CameraRate	NumFrames	NumMarkers	Units	OrigDataRate	OrigDataStartFrame	OrigNumFrames																																																																																																																
120	120	7	39	mm	120	59	156																																																																																																																
Frame#	Time	Sternum	R.Acromium	L.Acromium	Top.Head	R.ASIS	L.ASIS	V.Sacral	R.Thigh.Upper	R.Thigh.Front	R.Thigh.Rear	R.Knee.Lat	R.Knee.Med	R.Shank.Upper	R.Shank.Front	R.Shank.Rear	R.Ankle.Lat	R.Ankle.Med	R.Heel	R.Midfoot.Sup	R.Midfoot.Lat	R.Toe.Lat	R.Toe.Med	R.Toe.Tip	L.Thigh.Upper	L.Thigh.Front	L.Thigh.Rear	L.Knee.Lat	L.Knee.Med	L.Shank.Upper	L.Shank.Front	L.Shank.Rear	L.Ankle.Lat	L.Ankle.Med	L.Heel	L.Midfoot.Sup	L.Midfoot.Lat	L.Toe.Lat	L.Toe.Med	L.Toe.Tip																																																																															
 	 	X1	Y1	Z1	X2	Y2	Z2	X3	Y3	Z3	X4	Y4	Z4	X5	Y5	Z5	X6	Y6	Z6	X7	Y7	Z7	X8	Y8	Z8	X9	Y9	Z9	X10	Y10	Z10	X11	Y11	Z11	X12	Y12	Z12	X13	Y13	Z13	X14	Y14	Z14	X15	Y15	Z15	X16	Y16	Z16	X17	Y17	Z17	X18	Y18	Z18	X19	Y19	Z19	X20	Y20	Z20	X21	Y21	Z21	X22	Y22	Z22	X23	Y23	Z23	X24	Y24	Z24	X25	Y25	Z25	X26	Y26	Z26	X27	Y27	Z27	X28	Y28	Z28	X29	Y29	Z29	X30	Y30	Z30	X31	Y31	Z31	X32	Y32	Z32	X33	Y33	Z33	X34	Y34	Z34	X35	Y35	Z35	X36	Y36	Z36	X37	Y37	Z37	X38	Y38	Z38	X39	Y39	Z39	
																																																																																																																							
	59	0.75	1867.55147	-0.000992919	1224.25466	1760.637032	-160.4625222	1347.94253	1765.138149	163.6853836	1361.117017	1874.531601	-9.995724821	1595.07667	1838.956269	-119.563877	882.5092534	1843.543121	121.1976851	874.2268824	1662.182119	-5.695750883	911.9990144	1848.102885	-151.852957	649.1288434	1911.610397	-72.89581202	620.4306505	1878.412539	-144.0380039	553.249959	1875.231767	-128.7803171	475.2002262	1879.187068	-28.27664901	461.8723387	1881.402241	-139.9773559	396.2862552	1953.096096	-92.759033	392.073012	1921.562248	-148.0192813	332.7495417	2015.077629	-126.2596959	103.5633738	2016.68285	-48.83628676	117.7557314	1963.817059	-81.79932302	64.49266403	2079.769098	-50.48617332	117.7811691	2081.424348	-145.6838404	99.72047681	2163.339352	-153.7519611	107.1104319	2161.286511	-57.55224411	118.7110481	2211.893972	-85.7250635	137.7243813	1724.378258	155.8898652	626.987865	1778.518379	93.1736068	577.3369775	1693.87488	143.1256019	541.8178433	1645.587624	130.2344758	443.0906117	1646.718346	33.90932835	443.4063417	1622.466493	146.028905	377.6257931	1643.191016	97.96343807	323.6458302	1595.369084	155.397025	347.8093647	1513.989007	125.837295	87.68427439	1524.35696	46.58044596	105.379453	1442.992569	79.29350631	84.78546206	1594.758692	55.87355549	66.04840993	1578.602736	143.3687015	68.29129058	1631.355077	152.6622596	40.14989555	1646.328267	62.03409965	38.05309145	1689.661706	84.48225282	32.78060492
	60	0.75833	1874.895067	-0.000992919	1223.566313	1767.825161	-160.4625222	1347.119627	1772.309706	163.6853836	1360.299764	1881.408838	-9.995724821	1594.396808	1846.697448	-119.563877	881.7268297	1851.290255	121.1976851	873.4477594	1669.902136	-5.695750883	911.0894582	1854.80687	-151.852957	647.4894252	1918.106028	-72.89581202	618.3345461	1884.425144	-144.0380039	551.3947141	1880.682279	-128.7803171	473.3699164	1884.54148	-28.27664901	460.0138855	1886.76992	-139.9773559	394.4314332	1958.474619	-92.759033	390.40695	1927.097058	-148.0192813	331.0006675	2021.215484	-126.2596959	102.0614877	2022.783335	-48.83628676	116.2580222	1969.5872	-81.79932302	63.41337213	2085.950864	-50.48617332	115.7969356	2087.465362	-145.6838404	97.72389617	2169.435452	-153.7519611	104.4754681	2167.473048	-57.55224411	116.0917249	2218.227097	-85.7250635	134.7102236	1730.865434	155.8898652	626.2455811	1784.629091	93.1736068	576.1872898	1699.719795	143.1256019	541.3083228	1650.688414	130.2344758	442.9485295	1651.821487	33.90932835	443.2557123	1626.869109	146.028905	377.7099262	1646.97447	97.96343807	323.4963053	1599.432224	155.397025	348.2055824	1515.080328	125.837295	89.02892992	1525.650124	46.58044596	106.6042876	1444.050249	79.29350631	87.00169891	1595.57447	55.87355549	66.39966806	1579.447318	143.3687015	68.84106249	1631.849592	152.6622596	40.05305564	1646.795863	62.03409965	37.7722722	1690.061185	84.48225282	31.96727664
	61	0.76667	1882.322397	-0.000992919	1222.958126	1775.073342	-160.4625222	1346.355964	1779.538759	163.6853836	1359.542593	1888.298129	-9.995724821	1593.797681	1854.597411	-119.563877	881.0356622	1859.19899	121.1976851	872.7614639	1677.771081	-5.695750883	910.2109111	1861.620059	-151.852957	645.8647996	1924.693694	-72.89581202	616.2251831	1890.500276	-144.0380039	549.5457016	1886.15896	-128.7803171	471.5519129	1889.915587	-28.27664901	458.1666694	1892.053218	-139.9773559	392.5855211	1963.760482	-92.759033	388.606992	1932.420999	-148.0192813	329.1806128	2026.686125	-126.2596959	100.3017976	2028.244878	-48.83628676	114.4993339	1974.558068	-81.79932302	62.25505275	2091.497022	-50.48617332	113.3414613	2092.810462	-145.6838404	95.25269863	2174.850559	-153.7519611	101.0923793	2173.017443	-57.55224411	112.7297391	2223.975385	-85.7250635	130.7827225	1737.600375	155.8898652	625.564537	1791.001986	93.1736068	575.1201994	1705.843605	143.1256019	540.853875	1656.104854	130.2344758	442.8498859	1657.240111	33.90932835	443.1488973	1631.560801	146.028905	377.8499057	1651.00902	97.96343807	323.3970912	1603.769091	155.397025	348.6795476	1516.288824	125.837295	90.54202113	1527.070408	46.58044596	107.98826	1445.232767	79.29350631	89.46435171	1596.467258	55.87355549	66.8333552	1580.374275	143.3687015	69.49067586	1632.386008	152.6622596	40.00292884	1647.300368	62.03409965	37.5220316	1690.484003	84.48225282	31.13769032
	62	0.775	1889.831394	-0.000992919	1222.443309	1782.378454	-160.4625222	1345.663649	1786.822063	163.6853836	1358.857644	1895.193958	-9.995724821	1593.292238	1862.657281	-119.563877	880.4490367	1867.270521	121.1976851	872.1813346	1685.789991	-5.695750883	909.3749427	1868.547797	-151.852957	644.2721305	1931.37894	-72.89581202	614.1218756	1896.645785	-144.0380039	547.7219431	1891.671975	-128.7803171	469.7659342	1895.319906	-28.27664901	456.3506597	1897.271655	-139.9773559	390.7684521	1968.974253	-92.759033	386.7067051	1937.565824	-148.0192813	327.3167372	2031.565259	-126.2596959	98.32867586	2033.140488	-48.83628676	112.5243936	1978.8192	-81.79932302	61.05608708	2096.47391	-50.48617332	110.471766	2097.52958	-145.6838404	92.36613104	2179.64453	-153.7519611	97.03673202	2177.97735	-57.55224411	108.6990202	2229.187248	-85.7250635	126.0243845	1744.593664	155.8898652	624.9549534	1797.650596	93.1736068	574.1482087	1712.260892	143.1256019	540.4624654	1661.856049	130.2344758	442.7993859	1662.993316	33.90932835	443.0906612	1636.562548	146.028905	378.050766	1655.315718	97.96343807	323.3546889	1608.401599	155.397025	349.2367087	1517.640972	125.837295	92.23420242	1528.643864	46.58044596	109.5417199	1446.569165	79.29350631	92.19297084	1597.456217	55.87355549	67.35085425	1581.403852	143.3687015	70.24343528	1632.978416	152.6622596	39.997577	1647.854867	62.03409965	37.29865141	1690.940431	84.48225282	30.28293656
	63	0.78333	1897.419841	-0.000992919	1222.036262	1789.737942	-160.4625222	1345.056565	1794.157006	163.6853836	1358.258801	1902.092751	-9.995724821	1592.894522	1870.875501	-119.563877	879.9806	1875.503238	121.1976851	871.7210036	1693.957739	-5.695750883	908.5961842	1875.594	-151.852957	642.7320979	1938.166378	-72.89581202	612.0484239	1902.86961	-144.0380039	545.9463721	1897.232801	-128.7803171	468.0354969	1900.766476	-28.27664901	454.5896745	1902.447266	-139.9773559	389.0046271	1974.138373	-92.759033	384.7448695	1942.566042	-148.0192813	325.441871	2035.932706	-126.2596959	96.19507806	2037.547135	-48.83628676	110.3863912	1982.470313	-81.79932302	59.85755547	2100.950133	-50.48617332	107.2608514	2101.697073	-145.6838404	89.13985417	2183.879697	-153.7519611	92.41028019	2182.411521	-57.55224411	104.0992885	2233.909261	-85.7250635	120.5493588	1751.853873	155.8898652	624.428609	1804.587045	93.1736068	573.2859085	1718.985116	143.1256019	540.1431804	1667.961001	130.2344758	442.8022071	1669.100095	33.90932835	443.0862534	1641.895871	146.028905	378.317776	1659.916522	97.96343807	323.3760035	1613.352425	155.397025	349.8825754	1519.165854	125.837295	94.115749	1530.399026	46.58044596	111.2747016	1448.091813	79.29350631	95.20841992	1598.561398	55.87355549	67.95154235	1582.557447	143.3687015	71.1009896	1633.640702	152.6622596	40.03253752	1648.471993	62.03409965	37.09556477	1691.439598	84.48225282	29.39030865
	64	0.79167	1905.084172	-0.000992919	1221.752559	1797.148302	-160.4625222	1344.550093	1801.540076	163.6853836	1357.761431	1908.990754	-9.995724821	1592.619683	1879.247317	-119.563877	879.6439273	1883.892198	121.1976851	871.39396	1702.270505	-5.695750883	907.8920087	1882.760696	-151.852957	641.2684192	1945.059297	-72.89581202	610.0326277	1909.179379	-144.0380039	544.245284	1902.853838	-128.7803171	466.3873003	1906.268475	-28.27664901	452.9107559	1907.603524	-139.9773559	387.3220466	1979.276263	-92.759033	382.7636798	1947.457166	-148.0192813	323.5927178	2039.868039	-126.2596959	93.95897327	2041.54157	-48.83628676	108.143438	1985.616099	-81.79932302	58.69882779	2104.993393	-50.48617332	103.7942999	2105.388586	-145.6838404	85.66222107	2187.619195	-153.7519611	87.33741723	2186.378101	-57.55224411	99.05271237	2238.185331	-85.7250635	114.5004597	1759.387123	155.8898652	623.9984229	1811.821672	93.1736068	572.5496003	1726.028251	143.1256019	539.9057697	1674.438326	130.2344758	442.8634852	1675.579055	33.90932835	443.1408954	1647.582471	146.028905	378.6559128	1664.833825	97.96343807	323.4677528	1618.644569	155.397025	350.62224	1520.894119	125.837295	96.19616211	1532.365905	46.58044596	113.1965125	1449.835647	79.29350631	98.53247805	1599.802401	55.87355549	68.63254308	1583.856337	143.3687015	72.06306725	1634.385085	152.6622596	40.10069417	1649.162408	62.03409965	36.90324271	1691.987802	84.48225282	28.44323162
	65	0.8	1912.818344	-0.000992919	1221.60864	1804.603668	-160.4625222	1344.160549	1808.965406	163.6853836	1357.381835	1915.882039	-9.995724821	1592.483685	1887.764391	-119.563877	879.4520015	1892.428754	121.1976851	871.213033	1710.721324	-5.695750883	907.2818139	1890.047535	-151.852957	639.9068849	1952.059167	-72.89581202	608.1051886	1915.581774	-144.0380039	542.6472413	1908.547634	-128.7803171	464.8500757	1911.839432	-28.27664901	451.3430012	1912.763906	-139.9773559	385.7509359	1984.411051	-92.759033	380.8065503	1952.273674	-148.0192813	321.8078491	2043.446221	-126.2596959	91.67963962	2045.196137	-48.83628676	105.8548836	1988.360337	-81.79932302	57.61355503	2108.667566	-50.48617332	100.1660021	2108.677955	-145.6838404	82.02962012	2190.925596	-153.7519611	81.95972109	2189.933349	-57.55224411	93.69871171	2242.056677	-85.7250635	108.0437679	1767.196702	155.8898652	623.6778089	1819.362617	93.1736068	571.9566271	1733.400364	143.1256019	539.7600147	1681.305784	130.2344758	442.9877045	1682.447941	33.90932835	443.2591705	1653.643684	146.028905	379.0692587	1670.089806	97.96343807	323.6358093	1624.300747	155.397025	351.4598214	1522.856834	125.837295	98.48371141	1534.574889	46.58044596	115.3152592	1451.837355	79.29350631	102.1872173	1601.196941	55.87355549	69.38862918	1585.320303	143.3687015	73.12732194	1635.220591	152.6622596	40.19240184	1649.933221	62.03409965	36.70937195	1692.586746	84.48225282	27.42158963
